<svg width="850" height="443" viewBox="0 0 850 443" fill="none" xmlns="http://www.w3.org/2000/svg">
<path d="M202.516 257.053H206.641C206.426 259.029 205.86 260.798 204.943 262.359C204.027 263.921 202.73 265.16 201.055 266.076C199.379 266.979 197.288 267.43 194.781 267.43C192.948 267.43 191.279 267.086 189.775 266.398C188.286 265.711 187.004 264.737 185.93 263.477C184.855 262.202 184.025 260.676 183.438 258.9C182.865 257.11 182.578 255.119 182.578 252.928V249.812C182.578 247.621 182.865 245.637 183.438 243.861C184.025 242.071 184.863 240.538 185.951 239.264C187.054 237.989 188.379 237.008 189.926 236.32C191.473 235.633 193.213 235.289 195.146 235.289C197.51 235.289 199.508 235.733 201.141 236.621C202.773 237.509 204.041 238.741 204.943 240.316C205.86 241.878 206.426 243.689 206.641 245.752H202.516C202.315 244.291 201.943 243.038 201.398 241.992C200.854 240.932 200.081 240.116 199.078 239.543C198.076 238.97 196.765 238.684 195.146 238.684C193.757 238.684 192.533 238.949 191.473 239.479C190.427 240.008 189.546 240.76 188.83 241.734C188.128 242.708 187.598 243.876 187.24 245.236C186.882 246.597 186.703 248.108 186.703 249.77V252.928C186.703 254.46 186.861 255.9 187.176 257.246C187.505 258.592 187.999 259.774 188.658 260.791C189.317 261.808 190.155 262.61 191.172 263.197C192.189 263.77 193.392 264.057 194.781 264.057C196.543 264.057 197.947 263.777 198.992 263.219C200.038 262.66 200.826 261.858 201.355 260.812C201.9 259.767 202.286 258.514 202.516 257.053Z" fill="white"/>
<path d="M268.055 250.371V252.348C268.055 254.697 267.761 256.802 267.174 258.664C266.587 260.526 265.742 262.109 264.639 263.412C263.536 264.715 262.211 265.711 260.664 266.398C259.132 267.086 257.413 267.43 255.508 267.43C253.66 267.43 251.963 267.086 250.416 266.398C248.884 265.711 247.552 264.715 246.42 263.412C245.303 262.109 244.437 260.526 243.821 258.664C243.205 256.802 242.897 254.697 242.897 252.348V250.371C242.897 248.022 243.198 245.924 243.799 244.076C244.415 242.214 245.282 240.632 246.399 239.328C247.516 238.01 248.841 237.008 250.373 236.32C251.92 235.633 253.618 235.289 255.465 235.289C257.37 235.289 259.089 235.633 260.621 236.32C262.168 237.008 263.493 238.01 264.596 239.328C265.713 240.632 266.565 242.214 267.153 244.076C267.754 245.924 268.055 248.022 268.055 250.371ZM263.951 252.348V250.328C263.951 248.466 263.758 246.819 263.371 245.387C262.999 243.954 262.448 242.751 261.717 241.777C260.987 240.803 260.091 240.066 259.032 239.564C257.986 239.063 256.797 238.812 255.465 238.812C254.176 238.812 253.009 239.063 251.963 239.564C250.932 240.066 250.044 240.803 249.299 241.777C248.569 242.751 248.003 243.954 247.602 245.387C247.201 246.819 247 248.466 247 250.328V252.348C247 254.224 247.201 255.885 247.602 257.332C248.003 258.764 248.576 259.975 249.321 260.963C250.08 261.937 250.975 262.674 252.006 263.176C253.052 263.677 254.219 263.928 255.508 263.928C256.854 263.928 258.05 263.677 259.096 263.176C260.142 262.674 261.022 261.937 261.739 260.963C262.469 259.975 263.02 258.764 263.393 257.332C263.765 255.885 263.951 254.224 263.951 252.348Z" fill="white"/>
<path d="M324.915 263.627V267H309.274V263.627H324.915ZM310.09 235.719V267H305.944V235.719H310.09Z" fill="white"/>
<path d="M380.313 263.627V267H364.673V263.627H380.313ZM365.489 235.719V267H361.343V235.719H365.489Z" fill="white"/>
<path d="M436.615 263.627V267H420.05V263.627H436.615ZM420.888 235.719V267H416.741V235.719H420.888ZM434.423 249.168V252.541H420.05V249.168H434.423ZM436.4 235.719V239.113H420.05V235.719H436.4Z" fill="white"/>
<path d="M492.314 257.053H496.439C496.224 259.029 495.658 260.798 494.742 262.359C493.825 263.921 492.529 265.16 490.853 266.076C489.177 266.979 487.086 267.43 484.58 267.43C482.746 267.43 481.078 267.086 479.574 266.398C478.084 265.711 476.802 264.737 475.728 263.477C474.654 262.202 473.823 260.676 473.236 258.9C472.663 257.11 472.377 255.119 472.377 252.928V249.812C472.377 247.621 472.663 245.637 473.236 243.861C473.823 242.071 474.661 240.538 475.75 239.264C476.852 237.989 478.177 237.008 479.724 236.32C481.271 235.633 483.011 235.289 484.945 235.289C487.308 235.289 489.306 235.733 490.939 236.621C492.572 237.509 493.839 238.741 494.742 240.316C495.658 241.878 496.224 243.689 496.439 245.752H492.314C492.114 244.291 491.741 243.038 491.197 241.992C490.653 240.932 489.879 240.116 488.877 239.543C487.874 238.97 486.563 238.684 484.945 238.684C483.556 238.684 482.331 238.949 481.271 239.479C480.226 240.008 479.345 240.76 478.629 241.734C477.927 242.708 477.397 243.876 477.039 245.236C476.681 246.597 476.502 248.108 476.502 249.77V252.928C476.502 254.46 476.659 255.9 476.974 257.246C477.304 258.592 477.798 259.774 478.457 260.791C479.115 261.808 479.953 262.61 480.97 263.197C481.987 263.77 483.19 264.057 484.58 264.057C486.341 264.057 487.745 263.777 488.791 263.219C489.836 262.66 490.624 261.858 491.154 260.812C491.698 259.767 492.085 258.514 492.314 257.053Z" fill="white"/>
<path d="M544.684 235.719V267H540.602V235.719H544.684ZM554.738 235.719V239.113H530.568V235.719H554.738Z" fill="white"/>
<path d="M595.506 235.719V267H591.36V235.719H595.506Z" fill="white"/>
<path d="M658.811 250.371V252.348C658.811 254.697 658.517 256.802 657.93 258.664C657.343 260.526 656.498 262.109 655.395 263.412C654.292 264.715 652.967 265.711 651.42 266.398C649.888 267.086 648.169 267.43 646.264 267.43C644.417 267.43 642.719 267.086 641.172 266.398C639.64 265.711 638.308 264.715 637.176 263.412C636.059 262.109 635.193 260.526 634.577 258.664C633.961 256.802 633.653 254.697 633.653 252.348V250.371C633.653 248.022 633.954 245.924 634.555 244.076C635.171 242.214 636.038 240.632 637.155 239.328C638.272 238.01 639.597 237.008 641.129 236.32C642.676 235.633 644.374 235.289 646.221 235.289C648.126 235.289 649.845 235.633 651.378 236.32C652.924 237.008 654.249 238.01 655.352 239.328C656.469 240.632 657.322 242.214 657.909 244.076C658.51 245.924 658.811 248.022 658.811 250.371ZM654.708 252.348V250.328C654.708 248.466 654.514 246.819 654.128 245.387C653.755 243.954 653.204 242.751 652.473 241.777C651.743 240.803 650.848 240.066 649.788 239.564C648.742 239.063 647.553 238.812 646.221 238.812C644.932 238.812 643.765 239.063 642.719 239.564C641.688 240.066 640.8 240.803 640.055 241.777C639.325 242.751 638.759 243.954 638.358 245.387C637.957 246.819 637.756 248.466 637.756 250.328V252.348C637.756 254.224 637.957 255.885 638.358 257.332C638.759 258.764 639.332 259.975 640.077 260.963C640.836 261.937 641.731 262.674 642.762 263.176C643.808 263.677 644.975 263.928 646.264 263.928C647.611 263.928 648.807 263.677 649.852 263.176C650.898 262.674 651.779 261.937 652.495 260.963C653.225 259.975 653.777 258.764 654.149 257.332C654.521 255.885 654.708 254.224 654.708 252.348Z" fill="white"/>
<path d="M720.763 235.719V267H716.595L700.847 242.873V267H696.7V235.719H700.847L716.659 259.91V235.719H720.763Z" fill="white"/>
<path d="M655.055 170.799C634.765 191.43 616.32 215.819 592.683 233.24C540.626 271.77 444.643 275.459 399.213 240.686C379.674 225.793 366.08 203.181 348.523 182.618C347.703 183.642 344.492 187.058 342.169 190.952C314.091 237.475 273.649 262.479 218.723 262.752C200.551 262.82 182.379 264.187 164.275 263.23H145.761L145.488 280.309C145.488 310.915 142.507 334.242 128.024 361.159C100.971 411.302 57.1803 435.691 0 442.591V408.16C13.6631 403.993 28.2144 401.055 41.536 395.316C95.7786 372.089 107.3 330.726 109.418 277.85C111.604 223.88 110.032 169.774 110.169 115.737C110.169 108.503 110.169 90.8014 110.169 90.8014H145.488C145.488 90.8014 145.693 107.607 145.761 113.072C146.308 144.907 146.581 176.811 145.761 208.646L145.488 227.569H163.933C187.707 226.067 212.164 228.731 235.323 224.427C295.51 213.223 320.581 167.588 328.984 116.693C329.758 112.051 332.605 90.8014 332.605 90.8014H366.763C366.763 90.8014 369.495 105.967 370.588 110.135C375.029 127.692 377.898 145.727 383.568 162.806C395.592 199.15 422.235 220.123 459.331 225.725C494.855 231.054 529.832 226.271 562.282 209.876C609.762 185.965 629.437 143.883 634.424 93.8073L636.61 74.9521H655.192C713.192 75.6353 771.26 75.6353 829.329 74.9521H849.14V94.0122C848.252 144.088 848.252 194.163 849.14 244.238V263.367H829.329C782.327 263.708 736.214 259.951 700.075 226.135C682.176 209.397 668.65 187.946 654.987 170.936L655.055 170.799ZM679.307 111.159C676.984 172.644 747.281 236.177 803.983 226.135L812.933 224.017V213.496C813.753 184.052 813.069 154.54 813.479 125.028V111.159H799.27C775.427 111.501 751.585 111.228 727.811 111.159C711.552 111.159 695.293 111.159 679.307 111.159Z" fill="white" fill-opacity="0.08"/>
<rect x="93.2168" y="33.8146" width="47.821" height="47.821" transform="rotate(-45 93.2168 33.8146)" fill="white" fill-opacity="0.08"/>
<rect x="272.831" y="293.94" width="47.821" height="47.821" transform="rotate(-45 272.831 293.94)" fill="white" fill-opacity="0.08"/>
<rect x="361.639" y="293.94" width="47.821" height="47.821" transform="rotate(-45 361.639 293.94)" fill="white" fill-opacity="0.08"/>
<path d="M190.275 219.436H187.849L204.081 88.8316H210.238L249.42 209.547L288.415 88.8316H294.572L310.804 219.436H295.318L282.444 114.952L248.674 219.436H236.919L202.775 116.259L190.275 219.436Z" fill="white"/>
<path d="M517.104 88.8316C519.467 91.1949 520.649 94.2423 520.649 97.9739C520.649 101.084 519.965 104.255 518.596 107.489L485.199 175.217V219.436H469.713V179.322L432.397 88.8316H448.256L483.893 172.978L516.357 107.489C517.726 104.38 518.41 101.146 518.41 97.7873C518.41 94.4289 517.477 91.8168 515.611 89.951L517.104 88.8316Z" fill="white"/>
<path d="M636.967 90.6973V88.8316H713.091V90.6973L647.229 217.57H703.389C706.996 217.57 710.292 216.948 713.277 215.705C716.262 214.461 718.253 212.657 719.248 210.294L720.74 211.04C720.492 211.662 720.056 212.471 719.434 213.466C718.937 214.336 717.258 215.58 714.397 217.197C711.536 218.69 708.053 219.436 703.948 219.436H632.116V217.57L697.605 90.6973H636.967Z" fill="white"/>
<path d="M517.357 219.436H515.118L570.905 88.8316L572.958 87.8987L619.975 219.436H604.116L565.121 108.982L517.357 219.436Z" fill="white"/>
<path d="M331.69 219.436H329.452L385.238 88.8316L387.291 87.8987L434.308 219.436H418.449L379.454 108.982L331.69 219.436Z" fill="white"/>
<path fill-rule="evenodd" clip-rule="evenodd" d="M190.939 220.186H187L203.419 88.0816H210.783L249.418 207.113L287.869 88.0816H295.234L311.653 220.186H294.655L282.114 118.411L249.219 220.186H236.377L203.117 119.677L190.939 220.186ZM190.274 219.436H187.849L204.081 88.8316H210.238L249.42 209.547L288.414 88.8316H294.572L310.804 219.436H295.318L282.444 114.952L248.673 219.436H236.919L202.775 116.259L190.274 219.436ZM332.183 220.186H328.315L384.663 88.2692L387.722 86.8785L435.373 220.186H417.918L379.384 111.035L332.183 220.186ZM331.69 219.436H329.451L385.238 88.8316L387.291 87.8987L434.308 219.436H418.449L379.454 108.982L331.69 219.436ZM517.174 87.8413L517.634 88.3012C520.155 90.8222 521.399 94.0688 521.399 97.9739C521.399 101.196 520.689 104.467 519.287 107.782L519.278 107.802L485.949 175.392V220.186H468.963V179.47L431.277 88.0816H448.753L483.946 171.182L515.678 107.172C517 104.161 517.66 101.035 517.66 97.7873C517.66 94.5708 516.77 92.1708 515.081 90.4814L514.469 89.8699L517.174 87.8413ZM516.357 107.489L483.893 172.978L448.256 88.8316H432.397L469.713 179.322V219.436H485.199V175.217L518.596 107.489C519.964 104.255 520.649 101.084 520.649 97.9739C520.649 94.2423 519.467 91.1949 517.104 88.8316L515.611 89.951C515.789 90.1294 515.959 90.3145 516.12 90.5065C517.647 92.323 518.41 94.7499 518.41 97.7873C518.41 101.146 517.725 104.38 516.357 107.489ZM517.85 220.186H513.982L570.33 88.2692L573.389 86.8785L621.04 220.186H603.585L565.051 111.035L517.85 220.186ZM517.357 219.436H515.118L570.905 88.8316L572.957 87.8987L619.975 219.436H604.116L565.121 108.982L517.357 219.436ZM636.217 91.4473V88.0816H713.841V90.8804L648.463 216.82H703.388C706.908 216.82 710.105 216.214 712.989 215.012C715.842 213.823 717.656 212.14 718.556 210.003L718.867 209.265L721.693 210.678L721.437 211.319C721.164 211.999 720.705 212.847 720.078 213.851C719.744 214.427 719.093 215.028 718.248 215.654C717.374 216.302 716.21 217.034 714.766 217.85L714.755 217.856L714.744 217.862C711.75 219.424 708.142 220.186 703.948 220.186H631.366V217.388L696.373 91.4473H636.217ZM697.605 90.6973L632.116 217.57V219.436H703.948C708.053 219.436 711.536 218.69 714.397 217.197C717.257 215.58 718.937 214.336 719.434 213.466C720.056 212.471 720.491 211.662 720.74 211.04L719.248 210.294C719.15 210.525 719.043 210.751 718.927 210.972C717.853 213.005 715.97 214.582 713.277 215.705C710.292 216.948 706.996 217.57 703.388 217.57H647.229L713.091 90.6973V88.8316H636.967V90.6973H697.605Z" fill="white"/>
<path d="M445.385 61.3379L456.723 50.0001L468.06 61.3379L456.723 72.6757L445.385 61.3379Z" fill="white"/>
<path d="M486.936 61.3379L498.273 50.0001L509.611 61.3379L498.273 72.6757L486.936 61.3379Z" fill="white"/>
</svg>
